<?xml version="1.0" standalone="no"?>
<svg viewBox="0 0 200 200" xmlns="http://www.w3.org/2000/svg">
  <path fill="#371B58" d="M19.3,-36.8C28.9,-27.9,43.1,-30.5,49.4,-26.3C55.6,-22.1,53.7,-11.1,52.2,-0.8C50.8,9.4,49.9,18.8,41.5,19.3C33.1,19.8,17.4,11.3,9.3,7.6C1.1,3.8,0.6,4.7,-2.1,8.3C-4.7,11.9,-9.4,18.1,-12.6,19C-15.8,19.9,-17.5,15.5,-30.6,11.5C-43.8,7.4,-68.2,3.7,-72.9,-2.7C-77.6,-9.1,-62.4,-18.2,-51,-25.1C-39.5,-31.9,-31.6,-36.5,-23.7,-46.4C-15.8,-56.3,-7.9,-71.5,-1.5,-68.8C4.9,-66.2,9.7,-45.7,19.3,-36.8Z" transform="translate(100 100)" />
</svg>
